<svg width="682" height="292" viewBox="0 0 682 292" fill="none" xmlns="http://www.w3.org/2000/svg">
<g clip-path="url(#clip0_8_59)">
<path d="M149.631 162.9C149.637 162.004 149.458 161.116 149.106 160.292C148.754 159.468 148.235 158.725 147.583 158.11C146.931 157.495 146.159 157.022 145.315 156.719C144.472 156.416 143.575 156.29 142.681 156.349C141.787 156.408 140.914 156.651 140.118 157.062C139.321 157.473 138.619 158.045 138.053 158.74C137.487 159.435 137.071 160.239 136.83 161.103C136.589 161.966 136.529 162.87 136.653 163.757L117.921 188.288C117.121 189.887 116.811 191.686 117.03 193.46C117.248 195.234 117.985 196.904 119.148 198.261L120.618 199.975L127.36 198.627L135.002 191.884L134.102 184.243L143.542 169.409L143.53 169.399C145.182 169.294 146.732 168.563 147.866 167.356C148.999 166.149 149.63 164.556 149.631 162.9V162.9Z" fill="#A66500"/>
<path d="M20.0878 282.83L17.0299 271.473L59.3787 254.276L63.8917 271.037L20.0878 282.83Z" fill="#A66500"/>
<path d="M9.85896 288.69L-0.00012207 252.072L0.463034 251.947C4.24306 250.93 8.27251 251.455 11.6651 253.408C15.0576 255.362 17.5354 258.582 18.5535 262.362L18.5538 262.363L24.5753 284.728L9.85896 288.69Z" fill="#0C60A6"/>
<path d="M78.4215 281.015L68.9102 274.099L91.0642 234.119L105.102 244.328L78.4215 281.015Z" fill="#A66500"/>
<path d="M74.1424 292L43.4727 269.696L43.7548 269.308C46.0572 266.142 49.523 264.02 53.3896 263.41C57.2563 262.799 61.2072 263.749 64.3734 266.051L64.3741 266.052L83.1061 279.674L74.1424 292Z" fill="#0C60A6"/>
<path d="M159.274 225.147L135.339 201.896C133.25 199.866 130.499 198.659 127.591 198.497C124.683 198.335 121.814 199.228 119.512 201.012L74.3188 251.218L78.3645 257.511L121.516 228.294L150.734 266.501L178.603 252.567L159.274 225.147Z" fill="#0C60A6"/>
<path d="M148.936 230.092L131.405 228.743L118.71 225.666C117.993 224.547 116.951 223.674 115.724 223.164C114.497 222.653 113.144 222.53 111.845 222.81C110.546 223.09 109.363 223.761 108.456 224.731C107.548 225.702 106.959 226.927 106.767 228.242C106.575 229.556 106.789 230.899 107.38 232.088C107.972 233.278 108.913 234.259 110.077 234.899C111.242 235.539 112.574 235.809 113.896 235.671C115.217 235.533 116.465 234.995 117.473 234.128L117.471 234.137L125.113 237.284L157.926 248.521L161.971 245.375L148.936 230.092Z" fill="#A66500"/>
<path d="M191.189 278.638L181.3 284.931H169.613L115.224 264.704L35.662 279.088L33.4146 262.006L106.234 230.092L170.063 251.218L191.189 278.638Z" fill="#0C60A6"/>
<path d="M170.062 169.409C179.744 169.409 187.593 161.561 187.593 151.879C187.593 142.197 179.744 134.348 170.062 134.348C160.381 134.348 152.532 142.197 152.532 151.879C152.532 161.561 160.381 169.409 170.062 169.409Z" fill="#A66500"/>
<path d="M215.421 221.871C215.421 232.45 213.754 242.964 210.481 253.025L209.169 257.062L202.876 285.83L196.133 287.628L191.189 281.335L181.3 274.143L174.108 262.456L167.941 252.18L166.017 248.971L159.274 215.258L133.653 200.874L125.112 199.526L126.91 194.581L134.552 184.243L142.193 183.344L144.441 181.546L146.239 182.445L156.15 186.263L188.285 172.686L192.987 173.455L209.169 186.94C213.306 198.121 215.423 209.949 215.421 221.871V221.871Z" fill="#CCCCCC"/>
<path opacity="0.1" d="M210.517 217.956L193.436 229.193L167.941 252.18L166.017 248.971L160.623 222.001H161.972L175.906 196.38L210.517 217.956Z" fill="black"/>
<path d="M175.906 193.682L161.972 219.304L153.88 228.294L146.689 230.092L166.017 251.218L193.436 226.496L210.517 215.258L175.906 193.682Z" fill="#CCCCCC"/>
<path d="M156.427 138.844L154.528 139.575C154.24 139.38 153.993 139.13 153.801 138.839C153.609 138.548 153.477 138.223 153.411 137.881C153.345 137.539 153.347 137.187 153.417 136.846C153.487 136.505 153.624 136.181 153.819 135.893C153.829 135.878 153.84 135.863 153.85 135.848L150.34 135.684C152.593 132.683 155.458 130.194 158.745 128.383C162.032 126.572 165.665 125.48 169.406 125.179C173.146 124.877 176.908 125.373 180.443 126.635C183.977 127.896 187.203 129.893 189.908 132.494C190.068 131.944 191.81 133.015 192.521 134.1C192.76 133.205 194.394 137.534 194.971 140.595C195.239 139.576 196.267 141.221 195.366 142.799C195.937 142.716 196.195 144.176 195.753 144.99C196.378 144.696 196.272 146.44 195.595 147.605C196.486 147.526 195.519 165.881 182.146 164.544C181.214 160.266 181.477 160.531 180.38 155.031C179.87 154.489 179.311 153.996 178.753 153.503L175.736 150.84C172.227 147.742 169.035 143.92 164.361 142.762C161.149 141.967 159.118 141.787 160.868 138.167C159.287 138.827 157.81 139.809 156.214 140.422C156.235 139.916 156.458 139.35 156.427 138.844Z" fill="#2F2E41"/>
<path d="M178.828 157.048C180.565 157.048 181.974 155.639 181.974 153.902C181.974 152.164 180.565 150.755 178.828 150.755C177.09 150.755 175.681 152.164 175.681 153.902C175.681 155.639 177.09 157.048 178.828 157.048Z" fill="#A66500"/>
<path d="M32.0949 79.5879L31.1346 94.0062L45.553 94.9665L46.5132 80.5482L32.0949 79.5879Z" fill="#3DA8FF"/>
<path d="M22.7922 87.244L40.3001 88.41L39.1341 105.918L21.6262 104.752L22.7922 87.244ZM39.4882 89.1205L23.5027 88.0559L22.4381 104.041L38.4236 105.106L39.4882 89.1205Z" fill="#F2A122"/>
<path d="M113.575 36.8334L99.4475 39.869L102.483 53.9968L116.611 50.9612L113.575 36.8334Z" fill="#3DA8FF"/>
<path d="M103.659 29.9904L107.345 47.1456L90.19 50.8317L86.5039 33.6766L103.659 29.9904ZM106.439 46.56L103.073 30.8966L87.41 34.2622L90.7756 49.9256L106.439 46.56Z" fill="#F2A122"/>
<path d="M98.7303 104.68L88.184 114.558L98.0624 125.105L108.609 115.226L98.7303 104.68Z" fill="#3DA8FF"/>
<path d="M109.367 103.202L96.5608 115.198L84.5656 102.391L97.3718 90.396L109.367 103.202ZM96.5961 114.119L108.289 103.167L97.3365 91.4743L85.6439 102.427L96.5961 114.119Z" fill="#F2A122"/>
<path d="M644.124 0H216.581C215.036 -1.75624e-06 213.506 0.304379 212.078 0.895763C210.65 1.48715 209.353 2.35395 208.26 3.44669C207.168 4.53942 206.301 5.83669 205.71 7.26443C205.118 8.69216 204.814 10.2224 204.814 11.7678V249.986C204.814 251.532 205.118 253.062 205.709 254.49C206.301 255.918 207.168 257.215 208.26 258.308C209.353 259.4 210.65 260.267 212.078 260.859C213.506 261.45 215.036 261.754 216.581 261.754H644.124C647.245 261.754 650.238 260.514 652.445 258.308C654.652 256.101 655.892 253.107 655.892 249.986V11.7678C655.892 8.64675 654.652 5.65358 652.445 3.4467C650.238 1.23982 647.245 1.77345e-06 644.124 0V0Z" fill="#3F3D56"/>
<path d="M640.115 20.7969H220.591V257.451H640.115V20.7969Z" fill="white"/>
<path d="M429.994 14.3427C432.37 14.3427 434.297 12.4163 434.297 10.0399C434.297 7.66352 432.37 5.73709 429.994 5.73709C427.618 5.73709 425.691 7.66352 425.691 10.0399C425.691 12.4163 427.618 14.3427 429.994 14.3427Z" fill="white"/>
<path d="M520.138 257.452H220.591V20.7973L520.138 257.452Z" fill="#F2F2F2"/>
<path d="M542.996 143.746H503.808V151.934H542.996V143.746Z" fill="#0C60A6"/>
<path d="M580.072 99.3838H466.732V102.893H580.072V99.3838Z" fill="#0C60A6"/>
<path d="M580.072 113.172H466.732V116.681H580.072V113.172Z" fill="#0C60A6"/>
<path d="M580.072 126.959H466.732V130.469H580.072V126.959Z" fill="#0C60A6"/>
<path d="M610.433 34.9597H594.056V51.3368H610.433V34.9597Z" fill="#F2A122"/>
<path d="M618.037 58.9405H598.15V39.0539H618.037V58.9405ZM599.015 58.0759H617.172V39.9186H599.015L599.015 58.0759Z" fill="#3DA8FF"/>
<path d="M667.671 253.149H626.728V250.199C626.728 250.122 626.713 250.046 626.684 249.975C626.654 249.904 626.611 249.839 626.557 249.785C626.503 249.731 626.438 249.688 626.367 249.658C626.296 249.629 626.22 249.614 626.143 249.614H612.106C612.029 249.614 611.953 249.629 611.882 249.658C611.811 249.688 611.746 249.731 611.692 249.785C611.638 249.839 611.595 249.904 611.565 249.975C611.536 250.046 611.521 250.122 611.521 250.199V253.149H602.747V250.199C602.747 250.122 602.732 250.046 602.703 249.975C602.673 249.904 602.63 249.839 602.576 249.785C602.522 249.731 602.457 249.688 602.386 249.658C602.315 249.629 602.239 249.614 602.162 249.614H588.125C588.048 249.614 587.972 249.629 587.901 249.658C587.83 249.688 587.766 249.731 587.711 249.785C587.657 249.839 587.614 249.904 587.585 249.975C587.555 250.046 587.54 250.122 587.54 250.199V250.199V253.149H578.767V250.199C578.767 250.122 578.752 250.046 578.722 249.975C578.693 249.904 578.65 249.839 578.595 249.785C578.541 249.731 578.477 249.688 578.406 249.658C578.335 249.629 578.259 249.614 578.182 249.614H564.144C564.067 249.614 563.991 249.629 563.92 249.658C563.849 249.688 563.785 249.731 563.731 249.785C563.676 249.839 563.633 249.904 563.604 249.975C563.574 250.046 563.559 250.122 563.559 250.199V250.199V253.149H554.786V250.199C554.786 250.122 554.771 250.046 554.741 249.975C554.712 249.904 554.669 249.839 554.614 249.785C554.56 249.731 554.496 249.688 554.425 249.658C554.354 249.629 554.278 249.614 554.201 249.614H540.163C540.087 249.614 540.01 249.629 539.94 249.658C539.869 249.688 539.804 249.731 539.75 249.785C539.695 249.839 539.652 249.904 539.623 249.975C539.594 250.046 539.579 250.122 539.579 250.199V253.149H530.805V250.199C530.805 250.122 530.79 250.046 530.761 249.975C530.731 249.904 530.688 249.839 530.634 249.785C530.579 249.731 530.515 249.688 530.444 249.658C530.373 249.629 530.297 249.614 530.22 249.614H516.183C516.106 249.614 516.03 249.629 515.959 249.658C515.888 249.688 515.823 249.731 515.769 249.785C515.715 249.839 515.672 249.904 515.642 249.975C515.613 250.046 515.598 250.122 515.598 250.199V250.199V253.149H506.824V250.199C506.824 250.122 506.809 250.046 506.78 249.975C506.75 249.904 506.707 249.839 506.653 249.785C506.599 249.731 506.534 249.688 506.463 249.658C506.392 249.629 506.316 249.614 506.239 249.614H492.202C492.125 249.614 492.049 249.629 491.978 249.658C491.907 249.688 491.843 249.731 491.788 249.785C491.734 249.839 491.691 249.904 491.661 249.975C491.632 250.046 491.617 250.122 491.617 250.199V250.199V253.149H482.843V250.199C482.843 250.122 482.828 250.046 482.799 249.975C482.77 249.904 482.726 249.839 482.672 249.785C482.618 249.731 482.553 249.688 482.482 249.658C482.411 249.629 482.335 249.614 482.259 249.614H372.298C372.221 249.614 372.145 249.629 372.074 249.658C372.003 249.688 371.939 249.731 371.884 249.785C371.83 249.839 371.787 249.904 371.757 249.975C371.728 250.046 371.713 250.122 371.713 250.199V250.199V253.149H362.939V250.199C362.939 250.122 362.924 250.046 362.895 249.975C362.866 249.904 362.822 249.839 362.768 249.785C362.714 249.731 362.649 249.688 362.578 249.658C362.507 249.629 362.431 249.614 362.355 249.614H348.317C348.24 249.614 348.164 249.629 348.093 249.658C348.022 249.688 347.958 249.731 347.904 249.785C347.849 249.839 347.806 249.904 347.777 249.975C347.747 250.046 347.732 250.122 347.732 250.199V250.199V253.149H338.959V250.199C338.959 250.122 338.944 250.046 338.914 249.975C338.885 249.904 338.842 249.839 338.787 249.785C338.733 249.731 338.669 249.688 338.598 249.658C338.527 249.629 338.451 249.614 338.374 249.614H324.336C324.259 249.614 324.183 249.629 324.112 249.658C324.041 249.688 323.977 249.731 323.923 249.785C323.868 249.839 323.825 249.904 323.796 249.975C323.766 250.046 323.751 250.122 323.751 250.199V250.199V253.149H314.978V250.199C314.978 250.122 314.963 250.046 314.933 249.975C314.904 249.904 314.861 249.839 314.807 249.785C314.752 249.731 314.688 249.688 314.617 249.658C314.546 249.629 314.47 249.614 314.393 249.614H300.355C300.279 249.614 300.203 249.629 300.132 249.658C300.061 249.688 299.996 249.731 299.942 249.785C299.888 249.839 299.844 249.904 299.815 249.975C299.786 250.046 299.771 250.122 299.771 250.199V250.199V253.149H290.997V250.199C290.997 250.122 290.982 250.046 290.953 249.975C290.923 249.904 290.88 249.839 290.826 249.785C290.771 249.731 290.707 249.688 290.636 249.658C290.565 249.629 290.489 249.614 290.412 249.614H276.375C276.298 249.614 276.222 249.629 276.151 249.658C276.08 249.688 276.015 249.731 275.961 249.785C275.907 249.839 275.864 249.904 275.834 249.975C275.805 250.046 275.79 250.122 275.79 250.199V250.199V253.149H267.016V250.199C267.016 250.122 267.001 250.046 266.972 249.975C266.942 249.904 266.899 249.839 266.845 249.785C266.791 249.731 266.726 249.688 266.655 249.658C266.584 249.629 266.508 249.614 266.431 249.614H252.394C252.239 249.614 252.09 249.675 251.98 249.785C251.871 249.895 251.809 250.044 251.809 250.199V253.149H243.036V250.199C243.036 250.122 243.02 250.046 242.991 249.975C242.962 249.904 242.919 249.839 242.864 249.785C242.81 249.731 242.745 249.688 242.674 249.658C242.604 249.629 242.527 249.614 242.451 249.614H228.413C228.258 249.614 228.109 249.675 228 249.785C227.89 249.895 227.828 250.044 227.828 250.199V253.149H200.923C197.2 253.149 193.629 254.628 190.997 257.26C188.364 259.893 186.885 263.463 186.885 267.186V273.534C186.885 277.257 188.364 280.827 190.997 283.46C193.629 286.092 197.2 287.571 200.923 287.571H667.671C671.394 287.571 674.964 286.092 677.597 283.46C680.23 280.827 681.708 277.257 681.709 273.534V267.186C681.709 265.343 681.345 263.517 680.64 261.814C679.934 260.111 678.901 258.564 677.597 257.26C676.293 255.957 674.746 254.923 673.043 254.217C671.34 253.512 669.514 253.149 667.671 253.149V253.149Z" fill="#3F3D56"/>
</g>
<defs>
<clipPath id="clip0_8_59">
<rect width="681.709" height="292" fill="white"/>
</clipPath>
</defs>
</svg>
